<?xml version="1.0" encoding="UTF-8"?>
<svg class="livello_1" data-name="Livello 1" xmlns="http://www.w3.org/2000/svg" viewBox="0 0 2806.04 709.29">
  <g>
    <path d="m1184.53,704.29v-249.8h89.57l49.6,217.68h6.43v-217.68h46.39v249.8h-89.57l-49.6-217.68h-6.42v217.68h-46.39Z" style="fill: #f1e9e4; stroke-width: 0px;"/>
    <path d="m1416.48,704.29v-41.4h32.83v-167.01h-32.83v-41.39h128.47c15.22,0,28.49,2.56,39.79,7.67,11.3,5.12,20.1,12.37,26.41,21.77,6.3,9.4,9.46,20.64,9.46,33.72v3.57c0,11.42-2.14,20.76-6.42,28.01-4.28,7.26-9.34,12.85-15.17,16.77-5.83,3.93-11.36,6.72-16.59,8.39v6.42c5.23,1.43,10.94,4.1,17.13,8.03,6.18,3.93,11.48,9.58,15.88,16.95,4.4,7.38,6.6,17.01,6.6,28.91v3.57c0,13.8-3.21,25.64-9.63,35.51-6.42,9.88-15.29,17.43-26.58,22.66-11.3,5.24-24.45,7.85-39.43,7.85h-129.89Zm79.93-147.02h43.54c9.75,0,17.78-2.5,24.09-7.49,6.3-5,9.46-11.89,9.46-20.7v-3.57c0-9.04-3.09-16-9.28-20.88-6.19-4.87-14.28-7.31-24.26-7.31h-43.54v59.95Zm0,104.2h44.25c10.22,0,18.5-2.5,24.8-7.5,6.3-4.99,9.46-12.13,9.46-21.41v-3.57c0-9.28-3.1-16.42-9.28-21.41-6.19-5-14.51-7.49-24.98-7.49h-44.25v61.38Z" style="fill: #f1e9e4; stroke-width: 0px;"/>
    <path d="m1747.28,709.29c-19.27,0-36.28-3.45-51.03-10.35-14.75-6.9-26.29-16.77-34.61-29.62-8.33-12.85-12.49-28.31-12.49-46.39v-9.99h46.39v9.99c0,14.99,4.64,26.23,13.92,33.72,9.28,7.49,21.88,11.24,37.83,11.24s28.25-3.21,36.22-9.64c7.97-6.42,11.96-14.63,11.96-24.62,0-6.9-1.96-12.49-5.89-16.77-3.93-4.28-9.64-7.79-17.13-10.53-7.49-2.73-16.59-5.29-27.3-7.67l-8.21-1.78c-17.13-3.8-31.82-8.62-44.07-14.45-12.25-5.83-21.65-13.5-28.19-23.02-6.54-9.51-9.81-21.88-9.81-37.11s3.62-28.25,10.88-39.07c7.26-10.82,17.49-19.15,30.69-24.98,13.21-5.83,28.73-8.74,46.57-8.74s33.72,3.03,47.64,9.1c13.91,6.07,24.86,15.11,32.83,27.12,7.97,12.02,11.96,27.06,11.96,45.14v10.71h-46.39v-10.71c0-9.51-1.85-17.18-5.53-23.02-3.69-5.83-8.98-10.11-15.88-12.85-6.9-2.73-15.11-4.1-24.63-4.1-14.27,0-24.8,2.68-31.58,8.03-6.78,5.35-10.17,12.67-10.17,21.95,0,6.19,1.61,11.42,4.82,15.7,3.21,4.28,8.03,7.85,14.45,10.71s14.63,5.35,24.62,7.49l8.21,1.78c17.84,3.81,33.37,8.69,46.57,14.63,13.21,5.95,23.49,13.8,30.87,23.55,7.37,9.76,11.06,22.25,11.06,37.47s-3.87,28.61-11.6,40.15c-7.73,11.54-18.67,20.58-32.83,27.12-14.16,6.54-30.87,9.81-50.14,9.81Z" style="fill: #f1e9e4; stroke-width: 0px;"/>
    <path d="m1883.95,704.29v-249.8h22.84v249.8h-22.84Z" style="fill: #f1e9e4; stroke-width: 0px;"/>
    <path d="m1968.16,704.29v-249.8h45.32l102.06,236.23h4.28v-236.23h22.84v249.8h-45.32l-102.06-236.59h-4.28v236.59h-22.84Z" style="fill: #f1e9e4; stroke-width: 0px;"/>
    <path d="m2204.04,704.29v-249.8h148.45v20.7h-125.61v93.49h115.26v20.7h-115.26v114.91h-22.84Z" style="fill: #f1e9e4; stroke-width: 0px;"/>
    <path d="m2397.45,704.29v-249.8h97.77c15.46,0,29.09,2.62,40.86,7.85,11.78,5.24,21.05,12.79,27.83,22.66,6.78,9.88,10.17,21.83,10.17,35.86v3.57c0,16.89-4.05,30.15-12.13,39.79-8.09,9.64-17.61,16-28.55,19.09v4.28c8.33.24,15.34,2.85,21.06,7.85,5.71,4.99,8.56,12.97,8.56,23.91v84.93h-22.84v-82.43c0-7.61-2.09-13.44-6.25-17.49-4.16-4.04-10.41-6.07-18.73-6.07h-94.92v105.98h-22.84Zm22.84-126.68h72.8c18.56,0,32.89-4.34,43-13.02,10.11-8.68,15.17-21.11,15.17-37.29v-1.79c0-16.18-4.94-28.6-14.81-37.29-9.87-8.68-24.33-13.02-43.36-13.02h-72.8v102.42Z" style="fill: #f1e9e4; stroke-width: 0px;"/>
    <path d="m2601.92,704.29l81.72-249.8h40.68l81.72,249.8h-23.91l-21.41-66.37h-113.48l-21.41,66.37h-23.91Zm51.75-87.07h100.63l-48.18-149.16h-4.28l-48.17,149.16Z" style="fill: #f1e9e4; stroke-width: 0px;"/>
  </g>
  <g>
    <path d="m1.64.13c214.61-2.66,448.07,34.13,609.29,187.74,48.3,44.42,87.95,96.6,129.16,147.1,20.52,24.88,41.67,49.02,66.52,69.41,22.33,18.3,48.11,32.68,76.16,39.76,13.86,3.68,28.47,5.62,42.78,6.25,31.13.98,93.19-2.14,119.54-16.55.68-.51,1.29-1.09,1.31-1.13.01,0-.08.08-.1.13-.1.18-.02.23-.15.47-.09.35-.05.46-.05.89,0,.21.07.53.09.62-3.17-5.31-8.63-10.91-13.7-15.74-54.5-49.45-127.06-82.92-201.19-83.85-55.66-.52-102.71,18.44-136.99,63.42-39.32,51.8-56.78,115.39-86.63,173.17-30.39,61.42-74.58,110.43-143.81,125.98-21.32,5.08-43.27,6.64-65.1,6.49-.91,0-1.65-.74-1.65-1.65,0-.92.74-1.66,1.65-1.66,40.03-.64,80.99-8.43,115.43-29.65,98.65-62,104.96-191.8,170.98-279.69,36.14-48.45,86.58-69.27,146.13-69.17,77.89.44,153.15,35.12,210.47,86.82,5.97,5.85,12.56,12.02,16.62,19.7,1.9,3.69,1.56,8.23-.97,11.55-7.5,9.66-26.41,13.17-37.77,15.84-32.06,6.29-64.33,8.37-96.79,7.29-60.47-3.15-107.14-28.99-149.07-71.47-30.83-31.13-56.84-66.14-84.25-99.96-27.01-33.65-55.24-66.27-86.56-95.91C477.64,74.4,301.89,24.39,131.39,9.7,88.27,5.9,44.97,3.92,1.64,3.44.72,3.43,0,2.68,0,1.77,0,.87.74.14,1.64.13h0Z" style="fill: #00eb96; stroke-width: 0px;"/>
    <path d="m24.94,58.54c110.09-4.37,221.85,1.18,328.86,29.08,87.77,22.62,171.39,62.99,241.42,120.83,71.02,56.26,123.92,131.31,190.97,191.23,7.29,6.22,15.36,12.69,23.22,18.21,53.04,38.28,103.97,43.22,167.47,40.42,13.01-1.05,25.93-1.93,37.73-6.86.77-.36,1.46-.86,1.41-.83,0,.05-.39.27-.76,1.54-.06.28-.15.69-.14,1.07,0,.44,0,.68.15,1.31.23.96.68,1.62.6,1.5-8.37-8.53-19.94-16.71-30.59-23.86-84.89-56.62-219.18-88.58-299.31-8.13-76.17,77.49-92.79,211.11-207.76,249.03-28.77,9.85-59.53,12.17-89.72,10.74-.91-.03-1.63-.8-1.59-1.71.03-.93.82-1.64,1.74-1.59,29.72,1.02,59.97-1.62,88.12-11.66,112.35-38.49,127.76-173.3,203.07-250.96,74.83-77.56,199.54-58.87,286.15-12.02,18.06,9.71,35.33,20.47,51.39,33.4,3.18,2.66,6.63,5.44,9.33,8.76.14.17.38.5.63.91.11.14.68,1.08,1.02,2.34.21.92.25,1.49.25,2.23-.55,15.56-39.56,17.32-50.95,18.12-70.47,2.54-123.98-4.75-181.21-48.81-14.06-10.83-27.36-22.86-39.89-35.35-28.61-28.62-54.37-59.38-81.36-88.85-53.31-59.24-113.65-112.67-184.28-150.2-48.07-26.02-100.29-45.1-153.21-58.51-7.02-1.59-21.83-5.34-29.18-6.72-10.08-2.21-26.51-5.28-36.77-7.07-81.4-13.55-164.25-16.95-246.68-14.31-.91.03-1.68-.69-1.71-1.6-.03-.91.68-1.67,1.59-1.71h0Z" style="fill: #00eb96; stroke-width: 0px;"/>
    <path d="m48.23,116.94c173.65-15.1,359.86-1.38,509.64,95.92,55.96,35.43,104.63,80.92,151.55,127.26,31.2,30.36,62.03,61.32,98.1,85.78,32.03,21.9,65.35,35.02,103.84,39.95,17.73,2.59,37.57,7,55.08,4.99,5.85-.93,14.51-1.64,20.07-3.36-.02.04-.17.04-.82.64-.11.12-.33.34-.56.66-.97,1.15-1.27,3.19-.9,4.71,0,0,10.21,4.05,10.21,4.05-.95.75-3.49,1.34-4.46,1.14-1.66-.1-3.27-.79-4.72-1.48-1.75-.78-6.06-3.25-7.82-4.2-60.57-34.93-129.87-59.66-200.58-54.85-169.42,9.9-167.14,203.42-313.94,240.65-27.56,7.02-56.58,7.55-84.73,4.59-.91-.1-1.57-.91-1.47-1.82.09-.9.9-1.56,1.8-1.47,26,2.4,52.4,1.67,77.88-4.23,142.87-33.57,142.71-217.47,296.84-244.95,76.05-13.36,153.78,9.3,220.6,45.13,3.86,2.05,13.49,7.38,17.59,9.29.13.06.31.14.35.14l.1.04c-.31-.11-.7-.16-1.03-.18-.96-.1-2.87.32-3.77,1.06,0,0,10.21,4.05,10.21,4.05,1.49,7.81-6.54,10.29-12.32,11.31-7.15,1.33-13.95,2.41-21.13,3.13-18.01,1.09-36.96-3.17-54.61-5.98-65.11-8.71-112.99-41.4-160.02-85.13-48.06-44.88-91.97-93.93-143.3-135.1C450.52,128.5,244.14,104.6,48.49,120.24c-.91.07-1.71-.61-1.78-1.52-.07-.91.61-1.7,1.51-1.78h0Z" style="fill: #00eb96; stroke-width: 0px;"/>
    <path d="m71.5,175.36c161-23.46,334.21-17.52,479.01,64.03,90.96,48.45,161.15,125.62,242.95,186.35,24.54,17.45,50.65,32.54,79.25,41.74,8.48,2.82,20.47,5.77,29.16,8.14,9.85,2.63,19.66,5.29,29.33,7.5,8.54,1.85,17.23,3.64,25.45,2.22-.37.16-.26.11-.78.42-.22.2-.77.38-1.75,1.77-1.53,1.08-1.31,7.39,1.11,8.41l10.28-1.8c-1.18,2.27-3.61,3.84-5.96,4.31-1.87.44-4.1.28-5.5.08-5.71-.88-10.87-2.77-16.09-4.5,0,0-19.46-6.88-19.46-6.88-38.29-13.68-77.98-24.25-118.57-27.09-94.81-7.28-150.17,28.63-212.16,96.16-19.02,19.74-38.33,39.8-61.01,56-16.93,12.17-35.85,21.8-55.92,27.62-33.39,9.76-68.98,8.96-102.97,3.1-.9-.16-1.51-1.01-1.35-1.91.15-.89,1-1.49,1.89-1.35,40.23,6.39,82.53,5.25,120.02-11.61,76.48-34.48,113.96-119.85,189.58-156.42,76.45-38.27,166.9-22.92,244.61,3.51,0,0,19.47,6.56,19.47,6.56,4.89,1.47,9.89,3.44,14.72,3.76-1.12.22-2.43,1.13-2.99,2.33l10.28-1.8c2.54,1.14,2.8,7.63,1.15,8.84-1.82,2.46-3.28,2.78-5.46,3.45-10.4,2.28-21.52.36-31.53-1.75-10.27-2.21-20.13-5.03-29.98-7.77-7.44-2.08-18.8-5.19-26-7.41-31.1-9.9-59.86-26.58-85.97-45.68-81.27-61.6-150.01-139.25-240.09-188.59-106.21-61.23-230.95-82.05-352.4-78.34-40.73,1.09-81.4,4.67-121.85,9.89-.91.12-1.74-.51-1.86-1.42-.12-.9.51-1.73,1.41-1.86h0Z" style="fill: #00eb96; stroke-width: 0px;"/>
    <path d="m94.74,233.78c175.56-37.22,342.49-34.28,500.96,58.51,28.83,16.95,56.78,35.93,83.52,56.01,34.01,25.24,67.75,53.35,101.9,78.36,22.67,16.72,46.38,32.22,71.68,44.58,6.98,3.16,18.85,8.27,26.02,11.28,8.22,3.56,17.95,8.32,25.99,12.11,7.83,3.7,15.09,6.99,23.55,8.12.36.07.71.12,1.35.28.19.05.32.08.65.18.19.05.71.24,1.24.51.39.43,2.9.71,3.73,5.98-.61,4.71-2.23,4.84-2.63,5.45l2.01-2.67c-2.03,5.36-8.51,8.02-13.47,8.24-10.38.66-20.18-1.57-30-3.27-12.54-2.39-24.85-4.98-37.22-7.24-51.99-9.47-106.08-14.49-157.83-1.67-21.08,5.18-41.51,13.42-60.58,23.83-55.37,29.63-101.55,79.13-164.45,93.81-37.27,9.29-76.88,5.67-113.67-3.72-.89-.23-1.42-1.13-1.19-2.01.22-.88,1.11-1.41,1.99-1.2,35.04,8.31,71.87,11.33,107.07,3.07,64.51-14.62,109.9-65.93,166.24-97.2,18.02-10.33,37.63-18.54,57.57-24.44,54.25-15.4,111.99-11.49,166.92-2.31,18.6,2.93,37.11,7.27,55.63,9.2,3.94.28,8.04.6,11.04-.58-.12.07-.29.28-.34.46l2.01-2.68c-.29.52-1.77.54-2.39,5.09.83,5.11,3.18,5.3,3.45,5.67.4.21.78.34.82.35l.22.06c.07.02-.18-.03-.4-.06-9.39-1.08-18.74-4.91-27.07-8.75-8.81-3.99-17.29-8.11-25.86-11.97-7.24-3.11-18.94-8.4-26.28-11.79-25.92-13.04-50.11-29.25-73.19-46.72-33.9-25.47-67.35-54.05-101.04-79.69-26.19-20.16-53.62-39.29-81.87-56.38-116.31-70.11-241.16-91.75-375.46-80.83-9.41.87-26.85,2.69-35.47,3.5-15.3,2.27-41.13,5.48-56.39,8.63,0,0-28.07,5.15-28.07,5.15-.91.2-1.82-.39-1.99-1.32-.16-.89.42-1.75,1.31-1.92h0Z" style="fill: #00eb96; stroke-width: 0px;"/>
    <path d="m117.96,292.22c15.26-4.33,35.79-10.81,50.94-14.24,7.87-1.82,18.03-4.65,25.73-6.18,77.44-16.75,158.61-22.46,237.1-9.73,105.8,15.86,202.54,67.09,288.01,129.6,43.03,30.55,83.71,64.06,128.54,91.52,6.18,3.84,16.63,10,22.62,14.32,7.4,5.24,14.73,10.75,21.34,18l-2.1-1.56c6.37,3.11,16.23,7.88,13.81,16.66-7.88,20.3-43.96,15.79-61.44,15.51-36.52-2.1-72.37-4.87-108.74-3.39-23.93.98-47.78,4.29-71.02,10.11-59.33,14.1-111.77,47.33-171.18,61.41-48,11.58-98.65,4.68-144.44-12.28-.86-.31-1.3-1.26-.99-2.12.31-.85,1.24-1.29,2.1-1,34.22,11.7,70.37,18.56,106.5,15.56,48.6-3.72,92.59-26.14,136.67-45.41,22.44-9.74,45.38-18.58,69.07-24.95,23.74-6.4,48.27-10.23,72.82-11.67,42.56-2.76,85.32,1.38,127.65,1.71,8.47-.23,16.99-.4,24.66-3.22,2.85-1.25,4.63-2.3,5.75-4.55.02-.02.07-.11.06-.08-.22.52-.37,1-.39,1.63.02.89.14,1.76.66,2.45.01.04-.18-.19-.58-.46-.73-.54-1.86-1.21-3.04-1.83-1.83-1.1-4.38-1.74-5.87-3.42-11.48-11.82-27.06-20.65-41.14-29.66-15.24-9.38-29.64-19.76-43.94-30.18-83.77-63.23-166.33-130.74-265.71-167.66-65.19-25.03-135.62-36.68-205.41-35.76-47.89.86-96.53,7.04-143.33,17.52-11.53,2.77-26.95,6-38.36,9.44,0,0-25.39,7.04-25.39,7.04-.89.28-1.85-.23-2.1-1.13-.24-.87.26-1.78,1.13-2.03h0Z" style="fill: #00eb96; stroke-width: 0px;"/>
    <path d="m141.13,350.69c7.03-3.05,22.75-9.61,29.42-12.49,7.59-3.11,24.54-9.09,32.45-12.11,12.24-3.76,25.84-8.55,38.24-11.67,75.37-21.02,155.64-26.61,232.94-13.79,135.17,21.77,253.69,98.46,355.03,187.18,14.26,11.37,26.32,25.74,36.13,41.02,5.66,8.5,12.03,15.05,5.19,26-13.09,22.38-50.43,23.82-73.39,25.93-42.44,2.81-84.82,2.16-126.99,7.8-70.17,8.3-139.28,31.86-210.76,27.81-28.56-1.61-56.76-7.93-83.57-17.74-13.36-5-26.36-10.83-39.1-17.17-.82-.41-1.15-1.4-.74-2.22.4-.81,1.38-1.14,2.19-.76,25.4,12.19,52.05,21.97,79.73,27.3,84.71,17.65,167.6-15.17,250.96-26.76,28.14-4.27,56.74-5.88,85.12-7.43,14.14-.8,28.26-1.57,42.23-2.79,18.67-2.16,56.64-4.04,63.9-23.16-.03,0-.01.01-.04.07-.03.1,0,.2-.04.03-1.04-2.72-3.83-5.74-6.01-9.12-2.03-2.89-4.04-5.74-6.09-8.51-8.17-11.21-17.16-20.99-27.77-29.9-57.79-51.35-119.63-99.36-188.53-134.7-122.17-63.67-255.75-79.86-389.12-44.46-11.49,2.64-24.27,7.01-35.6,10.29-6.53,1.95-19.07,6.73-25.01,8.73-12,4.06-27.65,10.99-39.41,15.64-.85.39-1.88,0-2.23-.88-.34-.84.05-1.79.88-2.15h0Z" style="fill: #00eb96; stroke-width: 0px;"/>
    <path d="m164.26,409.22c82.84-54.36,174.99-83.42,274.34-82.51,126.71,2.38,252.93,51.54,346.31,137.65,11.22,10.7,22.48,22.69,32.16,34.82,11.42,14.04,19.72,30.82,24.13,48.35,1.42,5.45,2.73,12.29,1.45,18.39-11.78,44.91-77.28,52.67-116.05,57.52-82.44,6.84-166.16,15.83-248.31,1.49-40.99-7.26-80.75-21.31-116.98-41.8-12.04-6.84-23.71-14.3-35.02-22.25-.75-.53-.93-1.56-.4-2.3.52-.74,1.55-.93,2.29-.41,22.69,15.37,46.82,28.63,72.28,38.74,103.15,41.85,217.08,26.33,324.79,15.37,32.49-4.84,91.81-12.22,103.52-47.3,1.37-4.66.21-8.81-1.12-13.82-4.5-15.69-11.28-30.68-21.46-43.5-44.32-55.96-105.21-97.22-169.71-126.86-99.29-45.27-213.54-59.55-320.07-33.73-39.65,9.88-78.79,24.72-114.75,44.24-10.95,5.36-25.09,14.49-35.6,20.67-.78.53-1.86.3-2.35-.52-.47-.77-.22-1.78.54-2.26h0Z" style="fill: #00eb96; stroke-width: 0px;"/>
    <path d="m187.36,467.84c97.72-102.58,246.52-134.21,382.47-105.68,80.55,17.57,162.85,53.08,214.97,119.55,31.37,40.34,44.9,99.9,6.35,140.46-24.87,26.16-60.69,38.39-95.38,44.47-82.43,13.11-167.62-2.62-243.85-34.48-38.04-16.23-74.05-37.39-105.92-63.78-10.59-8.8-20.66-18.19-30.16-28.12-.63-.66-.61-1.71.05-2.34.64-.61,1.65-.6,2.29,0,9.85,9.39,20.26,18.16,31.06,26.39,94.17,70.93,227.3,107.94,344.16,88.91,37.23-7.21,78.52-21.23,98.29-55.9,6.1-10.94,8.81-23.33,8.66-35.85-1.36-53.88-42.98-96.04-85.08-125.2-100.87-67.03-231.12-88.44-348.95-61.7-52.74,12.35-102.97,35.58-145.75,68.97-10.78,8.27-20.97,17.29-30.87,26.63-.66.64-1.72.61-2.35-.06-.61-.64-.59-1.65,0-2.28h0Z" style="fill: #00eb96; stroke-width: 0px;"/>
  </g>
</svg>